<?xml version="1.0" encoding="UTF-8"?>
<svg version="1.1" xmlns="http://www.w3.org/2000/svg" width="240" height="192">
<path d="M0 0 C3.5 0.625 3.5 0.625 5.9375 2.6875 C7.82482417 6.23566944 7.81087045 8.66140173 7.5 12.625 C8.26441406 12.66238281 9.02882813 12.69976562 9.81640625 12.73828125 C36.76116612 14.39193077 63.49889557 24.09043521 83.5 42.625 C84.39847656 43.43195312 85.29695312 44.23890625 86.22265625 45.0703125 C102.80885363 60.70006249 111.4463748 79.40159594 115.5 101.625 C115.5 102.285 115.5 102.945 115.5 103.625 C111.8322784 102.9971918 108.64175094 101.92563439 105.1875 100.5625 C93.77607563 96.74934591 83.27870002 97.56171527 72.26953125 102.140625 C67.84917427 104.50978671 64.37222797 106.85932881 62.5 111.625 C60.8125 111.5 60.8125 111.5 58.5 110.625 C57.51 109.26375 57.51 109.26375 56.5 107.875 C52.30573676 102.40135457 44.80583927 100.72694642 38.5 98.625 C27.6893519 97.86086381 18.37604098 98.68697951 8.5 103.625 C8.06848028 106.63811815 8.06848028 106.63811815 7.9375 110.125 C7.59644087 116.52855913 7.59644087 116.52855913 6.5 117.625 C4.50200428 117.72373816 2.50042842 117.75471799 0.5 117.75 C-0.593125 117.75257812 -1.68625 117.75515625 -2.8125 117.7578125 C-5.5 117.625 -5.5 117.625 -6.5 116.625 C-6.73481693 114.44207226 -6.91363323 112.25296826 -7.0625 110.0625 C-7.14628906 108.86496094 -7.23007813 107.66742188 -7.31640625 106.43359375 C-7.37699219 105.50675781 -7.43757813 104.57992187 -7.5 103.625 C-8.08007812 103.43164062 -8.66015625 103.23828125 -9.2578125 103.0390625 C-16.5 100.625 -16.5 100.625 -19.35546875 99.54296875 C-28.54483112 96.86035986 -39.7233558 97.84753234 -48.5 101.625 C-52.28181297 103.87143466 -55.49739914 106.1901554 -58.03125 109.81640625 C-58.5159375 110.41324219 -59.000625 111.01007813 -59.5 111.625 C-60.49 111.625 -61.48 111.625 -62.5 111.625 C-62.933125 110.6659375 -62.933125 110.6659375 -63.375 109.6875 C-64.32823451 107.47293921 -64.32823451 107.47293921 -66.5 106.625 C-66.5 105.965 -66.5 105.305 -66.5 104.625 C-68.16625149 103.95729633 -69.83301682 103.29087483 -71.5 102.625 C-72.35335937 102.27179688 -73.20671875 101.91859375 -74.0859375 101.5546875 C-85.57755555 97.20911765 -96.4596724 97.17646863 -107.9140625 101.65234375 C-110.43961266 102.60228633 -112.84530957 103.1697733 -115.5 103.625 C-112.42084619 81.55773106 -104.58404772 64.03110991 -88.83496094 47.99511719 C-87.7545747 46.88627893 -86.70435617 45.74809893 -85.6640625 44.6015625 C-68.14667931 25.66144768 -40.5959499 15.51483665 -15.5 12.625 C-12.82472592 12.54553641 -10.17746372 12.57133146 -7.5 12.625 C-7.5825 11.573125 -7.665 10.52125 -7.75 9.4375 C-7.5 5.625 -7.5 5.625 -5.9375 2.6875 C-3.5 0.625 -3.5 0.625 0 0 Z " fill="#D03551" transform="translate(121.5,2.375)"/>
<path d="M0 0 C1.93166016 0.01740234 1.93166016 0.01740234 3.90234375 0.03515625 C5.19269531 0.04417969 6.48304687 0.05320313 7.8125 0.0625 C8.81152344 0.07410156 9.81054688 0.08570313 10.83984375 0.09765625 C10.86511114 7.34252176 10.88267555 14.58737599 10.89477539 21.83227539 C10.89981731 24.29907658 10.90665066 26.76587477 10.9152832 29.23266602 C10.927355 32.76970154 10.93307331 36.3066977 10.9375 39.84375 C10.94266129 40.95415146 10.94782257 42.06455292 10.95314026 43.20860291 C10.95321579 44.22958572 10.95329132 45.25056854 10.95336914 46.30249023 C10.95558975 47.20627914 10.95781036 48.11006805 10.96009827 49.04124451 C10.83984375 51.09765625 10.83984375 51.09765625 9.83984375 52.09765625 C7.65344922 52.17024571 5.46483986 52.18139408 3.27734375 52.16015625 C1.48103516 52.14662109 1.48103516 52.14662109 -0.3515625 52.1328125 C-1.27839844 52.12121094 -2.20523438 52.10960937 -3.16015625 52.09765625 C-3.32797204 44.85293005 -3.48793738 37.60806165 -3.64233398 30.36303711 C-3.6958442 27.8961999 -3.75118018 25.42940161 -3.80834961 22.96264648 C-3.8900096 19.42570392 -3.96519378 15.88867527 -4.0390625 12.3515625 C-4.06609756 11.24116104 -4.09313263 10.13075958 -4.12098694 8.98670959 C-4.14108322 7.96572678 -4.1611795 6.94474396 -4.18188477 5.89282227 C-4.20187027 4.98903336 -4.22185577 4.08524445 -4.2424469 3.15406799 C-4.10620365 -0.25059841 -3.48009825 0.10754321 0 0 Z " fill="#CF324E" transform="translate(118.16015625,135.90234375)"/>
<path d="M0 0 C1.93166016 0.01740234 1.93166016 0.01740234 3.90234375 0.03515625 C5.19269531 0.04417969 6.48304687 0.05320313 7.8125 0.0625 C8.81152344 0.07410156 9.81054688 0.08570313 10.83984375 0.09765625 C10.86511114 7.34252176 10.88267555 14.58737599 10.89477539 21.83227539 C10.89981731 24.29907658 10.90665066 26.76587477 10.9152832 29.23266602 C10.927355 32.76970154 10.93307331 36.3066977 10.9375 39.84375 C10.94266129 40.95415146 10.94782257 42.06455292 10.95314026 43.20860291 C10.95321579 44.22958572 10.95329132 45.25056854 10.95336914 46.30249023 C10.95558975 47.20627914 10.95781036 48.11006805 10.96009827 49.04124451 C10.83984375 51.09765625 10.83984375 51.09765625 9.83984375 52.09765625 C7.65344922 52.17024571 5.46483986 52.18139408 3.27734375 52.16015625 C1.48103516 52.14662109 1.48103516 52.14662109 -0.3515625 52.1328125 C-1.27839844 52.12121094 -2.20523438 52.10960937 -3.16015625 52.09765625 C-3.32797204 44.85293005 -3.48793738 37.60806165 -3.64233398 30.36303711 C-3.6958442 27.8961999 -3.75118018 25.42940161 -3.80834961 22.96264648 C-3.8900096 19.42570392 -3.96519378 15.88867527 -4.0390625 12.3515625 C-4.06609756 11.24116104 -4.09313263 10.13075958 -4.12098694 8.98670959 C-4.14108322 7.96572678 -4.1611795 6.94474396 -4.18188477 5.89282227 C-4.20187027 4.98903336 -4.22185577 4.08524445 -4.2424469 3.15406799 C-4.10620365 -0.25059841 -3.48009825 0.10754321 0 0 Z M-2.16015625 1.09765625 C-2.16015625 17.26765625 -2.16015625 33.43765625 -2.16015625 50.09765625 C1.46984375 50.09765625 5.09984375 50.09765625 8.83984375 50.09765625 C8.83984375 33.92765625 8.83984375 17.75765625 8.83984375 1.09765625 C5.20984375 1.09765625 1.57984375 1.09765625 -2.16015625 1.09765625 Z " fill="#D7536F" transform="translate(118.16015625,135.90234375)"/>
<path d="M0 0 C1.17369141 -0.00386719 1.17369141 -0.00386719 2.37109375 -0.0078125 C4.5625 0.125 4.5625 0.125 7.5625 1.125 C7.58938151 2.77074566 7.60884123 4.41661413 7.625 6.0625 C7.63660156 6.97902344 7.64820313 7.89554688 7.66015625 8.83984375 C7.5625 11.125 7.5625 11.125 6.5625 12.125 C4.37610547 12.19758946 2.18749611 12.20873783 0 12.1875 C-1.79630859 12.17396484 -1.79630859 12.17396484 -3.62890625 12.16015625 C-4.55574219 12.14855469 -5.48257813 12.13695312 -6.4375 12.125 C-6.4375 8.495 -6.4375 4.865 -6.4375 1.125 C-4.08479407 -0.05135297 -2.616748 -0.00859359 0 0 Z " fill="#CF324E" transform="translate(121.4375,121.875)"/>
<path d="M0 0 C1.17369141 -0.00386719 1.17369141 -0.00386719 2.37109375 -0.0078125 C4.5625 0.125 4.5625 0.125 7.5625 1.125 C7.58938151 2.77074566 7.60884123 4.41661413 7.625 6.0625 C7.63660156 6.97902344 7.64820313 7.89554688 7.66015625 8.83984375 C7.5625 11.125 7.5625 11.125 6.5625 12.125 C4.37610547 12.19758946 2.18749611 12.20873783 0 12.1875 C-1.79630859 12.17396484 -1.79630859 12.17396484 -3.62890625 12.16015625 C-4.55574219 12.14855469 -5.48257813 12.13695312 -6.4375 12.125 C-6.4375 8.495 -6.4375 4.865 -6.4375 1.125 C-4.08479407 -0.05135297 -2.616748 -0.00859359 0 0 Z M-5.4375 2.125 C-5.4375 4.765 -5.4375 7.405 -5.4375 10.125 C-1.8075 10.125 1.8225 10.125 5.5625 10.125 C5.5625 7.485 5.5625 4.845 5.5625 2.125 C1.9325 2.125 -1.6975 2.125 -5.4375 2.125 Z " fill="#D96075" transform="translate(121.4375,121.875)"/>
</svg>
